<svg width="32" height="32" viewBox="0 0 32 32" xmlns="http://www.w3.org/2000/svg"><path d="M6.160 2.699 C 6.101 2.711,5.922 2.748,5.762 2.780 C 4.589 3.018,3.445 3.985,2.978 5.132 C 2.655 5.925,2.667 5.628,2.667 13.333 C 2.667 21.038,2.655 20.741,2.978 21.535 C 3.363 22.481,4.185 23.303,5.132 23.688 C 5.563 23.864,6.185 24.000,6.556 24.000 L 6.824 24.000 6.839 17.507 L 6.855 11.013 6.977 10.617 C 7.241 9.758,7.631 9.078,8.213 8.459 C 8.880 7.751,9.725 7.234,10.640 6.975 L 11.067 6.854 17.533 6.839 L 24.000 6.824 24.000 6.557 C 24.000 6.409,23.963 6.110,23.918 5.892 C 23.605 4.378,22.570 3.279,20.987 2.780 C 20.750 2.706,19.904 2.695,13.493 2.687 C 9.519 2.682,6.219 2.687,6.160 2.699 M11.493 8.033 C 11.435 8.045,11.256 8.081,11.096 8.113 C 9.923 8.352,8.778 9.318,8.312 10.465 C 7.989 11.259,8.000 10.962,8.000 18.667 C 8.000 26.372,7.989 26.075,8.312 26.868 C 8.697 27.815,9.519 28.637,10.465 29.022 C 11.259 29.345,10.962 29.333,18.667 29.333 C 26.372 29.333,26.075 29.345,26.868 29.022 C 27.810 28.639,28.639 27.810,29.022 26.868 C 29.345 26.075,29.333 26.372,29.333 18.667 C 29.333 12.534,29.323 11.571,29.251 11.225 C 28.939 9.711,27.903 8.612,26.320 8.114 C 26.083 8.039,25.237 8.029,18.827 8.020 C 14.852 8.015,11.552 8.021,11.493 8.033 M19.253 15.040 L 19.253 18.080 22.293 18.080 L 25.333 18.080 25.333 18.667 L 25.333 19.253 22.293 19.253 L 19.253 19.253 19.253 22.293 L 19.253 25.333 18.667 25.333 L 18.080 25.333 18.080 22.293 L 18.080 19.253 15.040 19.253 L 12.000 19.253 12.000 18.667 L 12.000 18.080 15.040 18.080 L 18.080 18.080 18.080 15.040 L 18.080 12.000 18.667 12.000 L 19.253 12.000 19.253 15.040 " stroke="none" fill-rule="evenodd"></path></svg>