<svg width="25" height="25" viewBox="0 0 25 25" fill="none" xmlns="http://www.w3.org/2000/svg"><path d="M11.813 0.951 C 11.201 1.132,10.627 1.586,10.303 2.146 C 10.091 2.512,1.113 20.008,0.789 20.688 C 0.499 21.294,0.440 21.527,0.447 22.042 C 0.463 23.272,1.335 24.364,2.495 24.606 C 2.753 24.660,4.071 24.666,12.656 24.657 L 22.521 24.646 22.791 24.545 C 23.199 24.393,23.529 24.182,23.810 23.895 C 24.110 23.589,24.290 23.299,24.446 22.875 C 24.550 22.592,24.560 22.510,24.560 22.000 C 24.560 21.519,24.546 21.399,24.465 21.170 C 24.355 20.861,14.805 2.241,14.612 1.958 C 14.323 1.535,13.855 1.177,13.351 0.992 C 13.007 0.865,12.176 0.843,11.813 0.951 M13.069 8.806 C 13.310 8.930,13.538 9.160,13.673 9.417 L 13.771 9.604 13.771 12.667 L 13.771 15.729 13.659 15.942 C 13.502 16.238,13.187 16.511,12.894 16.603 C 12.311 16.786,11.657 16.510,11.378 15.964 C 11.218 15.651,11.204 15.340,11.217 12.477 C 11.228 10.042,11.237 9.709,11.298 9.550 C 11.450 9.154,11.762 8.848,12.142 8.723 C 12.392 8.641,12.821 8.679,13.069 8.806 M13.069 18.139 C 13.310 18.263,13.539 18.494,13.673 18.750 C 13.755 18.909,13.771 18.998,13.771 19.333 C 13.770 19.682,13.757 19.754,13.658 19.942 C 13.193 20.826,12.000 20.909,11.461 20.095 C 11.305 19.859,11.242 19.640,11.242 19.333 C 11.242 19.206,11.262 19.027,11.287 18.934 C 11.389 18.553,11.747 18.186,12.142 18.056 C 12.392 17.974,12.821 18.012,13.069 18.139 " stroke="none" fill-rule="evenodd"></path></svg>