<svg width="22" height="28" viewBox="0 0 22 28" fill="none" xmlns="http://www.w3.org/2000/svg"><path d="M10.688 0.712 C 10.588 0.736,10.447 0.786,10.377 0.822 C 10.231 0.896,3.338 7.759,3.211 7.957 C 2.778 8.628,3.061 9.546,3.807 9.893 C 3.981 9.974,4.066 9.990,4.327 9.990 C 4.591 9.989,4.675 9.973,4.877 9.883 C 5.099 9.784,5.267 9.625,7.397 7.503 L 9.679 5.228 9.689 11.808 L 9.698 18.388 9.789 18.572 C 9.902 18.802,10.197 19.101,10.416 19.206 C 11.071 19.522,11.823 19.271,12.176 18.620 L 12.302 18.388 12.311 11.808 L 12.321 5.228 14.603 7.503 C 17.016 9.908,16.989 9.885,17.424 9.978 C 17.996 10.101,18.615 9.773,18.876 9.210 C 19.056 8.822,19.021 8.316,18.789 7.957 C 18.644 7.732,11.766 0.894,11.605 0.815 C 11.442 0.735,11.123 0.658,10.971 0.663 C 10.916 0.665,10.789 0.687,10.688 0.712 M1.321 18.062 C 0.934 18.166,0.612 18.445,0.433 18.830 L 0.348 19.012 0.349 21.487 L 0.349 23.962 0.452 24.328 C 0.885 25.877,2.063 26.973,3.630 27.287 C 3.980 27.357,18.020 27.357,18.370 27.287 C 20.116 26.937,21.391 25.596,21.633 23.852 C 21.661 23.654,21.671 22.814,21.663 21.285 L 21.652 19.012 21.553 18.801 C 21.434 18.548,21.165 18.269,20.927 18.154 C 20.832 18.108,20.648 18.052,20.520 18.030 C 20.070 17.953,19.544 18.170,19.270 18.544 C 19.004 18.907,19.015 18.790,18.994 21.377 L 18.975 23.705 18.859 23.925 C 18.746 24.139,18.522 24.384,18.330 24.502 C 18.034 24.684,18.353 24.677,11.000 24.677 C 3.647 24.677,3.966 24.684,3.670 24.502 C 3.478 24.384,3.254 24.139,3.141 23.925 L 3.025 23.705 3.006 21.377 C 2.988 19.275,2.980 19.032,2.922 18.883 C 2.766 18.483,2.412 18.166,2.000 18.060 C 1.734 17.991,1.583 17.992,1.321 18.062 " stroke="none" fill-rule="evenodd"></path></svg>