<svg xmlns="http://www.w3.org/2000/svg" width="32" height="32"><path fill-rule="evenodd" d="m6.16 2.699-.398.081c-1.173.238-2.317 1.205-2.784 2.352-.323.793-.311.496-.311 8.201s-.012 7.408.311 8.202a4.04 4.04 0 0 0 2.154 2.153c.431.176 1.053.312 1.424.312h.268l.015-6.493.016-6.494.122-.396c.264-.859.654-1.539 1.236-2.158a5.36 5.36 0 0 1 2.427-1.484l.427-.121 6.466-.015L24 6.824v-.267c0-.148-.037-.447-.082-.665-.313-1.514-1.348-2.613-2.931-3.112-.237-.074-1.083-.085-7.494-.093-3.974-.005-7.274 0-7.333.012m5.333 5.334-.397.08c-1.173.239-2.318 1.205-2.784 2.352-.323.794-.312.497-.312 8.202s-.011 7.408.312 8.201a4.04 4.04 0 0 0 2.153 2.154c.794.323.497.311 8.202.311s7.408.012 8.201-.311a4.06 4.06 0 0 0 2.154-2.154c.323-.793.311-.496.311-8.201 0-6.133-.01-7.096-.082-7.442-.312-1.514-1.348-2.613-2.931-3.111-.237-.075-1.083-.085-7.493-.094-3.975-.005-7.275.001-7.334.013m7.76 7.007v3.04h6.08v1.173h-6.08v6.08H18.08v-6.08H12V18.08h6.08V12h1.173z"/></svg>