<svg xmlns="http://www.w3.org/2000/svg" width="25" height="25" fill="none"><path d="M11.813.951a2.7 2.7 0 0 0-1.51 1.195c-.212.366-9.19 17.862-9.514 18.542-.29.606-.349.839-.342 1.354.016 1.23.888 2.322 2.048 2.564.258.054 1.576.06 10.161.051l9.865-.011.27-.101a2.7 2.7 0 0 0 1.019-.65c.3-.306.48-.596.636-1.02.104-.283.114-.365.114-.875 0-.481-.014-.601-.095-.83-.11-.309-9.66-18.929-9.853-19.212a2.7 2.7 0 0 0-1.261-.966c-.344-.127-1.175-.149-1.538-.041m1.256 7.855c.241.124.469.354.604.611l.098.187v6.125l-.112.213c-.157.296-.472.569-.765.661a1.29 1.29 0 0 1-1.516-.639c-.16-.313-.174-.624-.161-3.487.011-2.435.02-2.768.081-2.927.152-.396.464-.702.844-.827.25-.082.679-.044.927.083m0 9.333c.241.124.47.355.604.611.082.159.098.248.098.583-.001.349-.014.421-.113.609-.465.884-1.658.967-2.197.153a1.27 1.27 0 0 1-.219-.762c0-.127.02-.306.045-.399.102-.381.46-.748.855-.878.25-.082.679-.044.927.083"/></svg>