<svg xmlns="http://www.w3.org/2000/svg" width="22" height="28" fill="none"><path d="M10.688.712a1.7 1.7 0 0 0-.311.11c-.146.074-7.039 6.937-7.166 7.135-.433.671-.15 1.589.596 1.936.174.081.259.097.52.097.264-.001.348-.017.55-.107.222-.099.39-.258 2.52-2.38l2.282-2.275.01 6.58.009 6.58.091.184c.113.23.408.529.627.634.655.316 1.407.065 1.76-.586l.126-.232.009-6.58.01-6.58 2.282 2.275c2.413 2.405 2.386 2.382 2.821 2.475.572.123 1.191-.205 1.452-.768a1.35 1.35 0 0 0-.087-1.253c-.145-.225-7.023-7.063-7.184-7.142a1.8 1.8 0 0 0-.634-.152 2 2 0 0 0-.283.049m-9.367 17.35a1.38 1.38 0 0 0-.888.768l-.085.182.001 2.475v2.475l.103.366c.433 1.549 1.611 2.645 3.178 2.959.35.07 14.39.07 14.74 0 1.746-.35 3.021-1.691 3.263-3.435.028-.198.038-1.038.03-2.567l-.011-2.273-.099-.211a1.5 1.5 0 0 0-.626-.647 2 2 0 0 0-.407-.124c-.45-.077-.976.14-1.25.514-.266.363-.255.246-.276 2.833l-.019 2.328-.116.22a1.7 1.7 0 0 1-.529.577c-.296.182.023.175-7.33.175s-7.034.007-7.33-.175a1.7 1.7 0 0 1-.529-.577l-.116-.22-.019-2.328c-.018-2.102-.026-2.345-.084-2.494A1.38 1.38 0 0 0 2 18.06a1.13 1.13 0 0 0-.679.002"/></svg>