<svg width="32" height="32" viewBox="0 0 32 32" xmlns="http://www.w3.org/2000/svg">
<path fill-rule="evenodd" clip-rule="evenodd" d="M24 6.66669L24 6.80002H12C9.12388 6.80002 6.79996 9.12395 6.79996 12V24L6.66663 24C4.45329 24 2.66663 22.2134 2.66663 20V6.66669C2.66663 4.45335 4.45329 2.66669 6.66663 2.66669H20C22.2133 2.66669 24 4.45335 24 6.66669ZM25.3333 29.3334H12C9.78663 29.3334 7.99996 27.5467 7.99996 25.3334V12C7.99996 9.78669 9.78663 8.00002 12 8.00002H25.3333C27.5466 8.00002 29.3333 9.78669 29.3333 12V25.3334C29.3333 27.5467 27.5466 29.3334 25.3333 29.3334ZM18.0666 19.2667V25.3334H19.2666V19.2667H25.3333V18.0667H19.2666V12H18.0666V18.0667H12V19.2667H18.0666Z" fill="black"/>
</svg>
