<svg width="25" height="25" viewBox="0 0 25 25" fill="none" xmlns="http://www.w3.org/2000/svg">
<path fill-rule="evenodd" clip-rule="evenodd" d="M14.8006 2.2687C13.8293 0.376736 11.2011 0.37675 10.2299 2.2687L0.740942 20.7523C-0.170803 22.5284 1.07766 24.6667 3.02629 24.6667H22.0042C23.9528 24.6667 25.2013 22.5283 24.2895 20.7523L14.8006 2.2687ZM12.5152 8.66671C11.8011 8.66671 11.2222 9.26366 11.2222 10V15.3334C11.2222 16.0698 11.8011 16.6667 12.5152 16.6667C13.2292 16.6667 13.8081 16.0698 13.8081 15.3334V10C13.8081 9.26366 13.2292 8.66671 12.5152 8.66671ZM12.5152 20.6667C13.2292 20.6667 13.8081 20.0698 13.8081 19.3334C13.8081 18.597 13.2292 18 12.5152 18C11.8011 18 11.2222 18.597 11.2222 19.3334C11.2222 20.0698 11.8011 20.6667 12.5152 20.6667Z" fill="black"/>
</svg>
