<svg width="22" height="28" viewBox="0 0 22 28" fill="none" xmlns="http://www.w3.org/2000/svg">
<path d="M3.39056 9.6095C3.91126 10.1302 4.75548 10.1302 5.27618 9.6095L9.66671 5.21897V18C9.66671 18.7364 10.2637 19.3334 11 19.3334C11.7364 19.3334 12.3334 18.7364 12.3334 18V5.21897L16.7239 9.6095C17.2446 10.1302 18.0888 10.1302 18.6095 9.6095C19.1302 9.0888 19.1302 8.24458 18.6095 7.72388L11.9429 1.05721C11.815 0.929376 11.6677 0.832925 11.5104 0.767859C11.3532 0.702668 11.1808 0.666687 11 0.666687C10.6588 0.666687 10.3176 0.796862 10.0572 1.05721L3.39056 7.72388C2.86987 8.24458 2.86987 9.0888 3.39056 9.6095Z" fill="black"/>
<path d="M3.00004 19.3334C3.00004 18.597 2.40309 18 1.66671 18C0.930328 18 0.333374 18.597 0.333374 19.3334V23.3334C0.333374 25.5425 2.12424 27.3334 4.33337 27.3334H17.6667C19.8758 27.3334 21.6667 25.5425 21.6667 23.3334V19.3334C21.6667 18.597 21.0698 18 20.3334 18C19.597 18 19 18.597 19 19.3334V23.3334C19 24.0697 18.4031 24.6667 17.6667 24.6667H4.33337C3.59699 24.6667 3.00004 24.0697 3.00004 23.3334V19.3334Z" fill="black"/>
</svg>
